<svg width="229" height="64" xmlns="http://www.w3.org/2000/svg" xmlns:xlink="http://www.w3.org/1999/xlink" xml:space="preserve" overflow="hidden"><defs><clipPath id="clip0"><rect x="330" y="433" width="229" height="64"/></clipPath></defs><g clip-path="url(#clip0)" transform="translate(-330 -433)"><path d="M461.5 453C463.814 453 465.975 453.411 467.984 454.233 469.994 455.055 471.739 456.251 473.221 457.822 474.702 459.393 475.869 461.315 476.722 463.587 477.574 465.859 478 468.445 478 471.346 478 473.134 477.635 474.488 476.904 475.406 476.174 476.325 475.321 476.784 474.347 476.784L452.063 476.784C452.063 476.881 452.093 477.28 452.154 477.981 452.215 478.682 452.357 479.515 452.58 480.482 452.804 481.449 453.128 482.476 453.555 483.564 453.981 484.652 454.559 485.655 455.29 486.573 456.02 487.492 456.924 488.253 457.999 488.857 459.075 489.462 460.384 489.764 461.926 489.764 463.185 489.764 464.26 489.643 465.153 489.401 466.046 489.16 466.838 488.797 467.528 488.314 468.218 487.83 468.847 487.214 469.415 486.465 469.984 485.715 470.552 484.833 471.12 483.818 471.445 483.238 471.81 482.827 472.216 482.585 472.622 482.343 473.048 482.223 473.495 482.223 474.225 482.223 474.895 482.537 475.504 483.165 476.113 483.794 476.417 484.591 476.417 485.558 476.417 486.138 476.153 487.008 475.626 488.169 475.098 489.329 474.256 490.489 473.099 491.649 471.942 492.809 470.45 493.825 468.624 494.695 466.797 495.565 464.565 496 461.926 496 459.247 496 456.853 495.42 454.742 494.26 452.631 493.1 450.855 491.54 449.414 489.583 447.973 487.625 446.877 485.341 446.127 482.73 445.376 480.12 445 477.388 445 474.536 445 471.587 445.386 468.796 446.157 466.161 446.928 463.526 448.034 461.242 449.475 459.309 450.916 457.375 452.651 455.84 454.681 454.704 456.711 453.568 458.984 453 461.5 453ZM461.622 459.236C460.12 459.236 458.841 459.502 457.786 460.034 456.731 460.566 455.848 461.23 455.138 462.028 454.427 462.826 453.869 463.708 453.463 464.675 453.057 465.641 452.753 466.536 452.55 467.358 452.347 468.179 452.225 468.892 452.185 469.497 452.144 470.101 452.124 470.451 452.124 470.548L471.851 470.548C471.851 469.049 471.648 467.623 471.242 466.27 470.836 464.916 470.217 463.72 469.385 462.68 468.553 461.641 467.487 460.807 466.188 460.179 464.889 459.55 463.367 459.236 461.622 459.236Z" fill-rule="evenodd"/><path d="M437.029 433C437.867 433 438.571 433.399 439.143 434.198 439.714 434.996 440 435.981 440 437.152L440 491.768C440 492.939 439.714 493.937 439.143 494.762 438.571 495.588 437.867 496 437.029 496 436.191 496 435.476 495.588 434.886 494.762 434.295 493.937 434 492.939 434 491.768L434 437.152C434 435.981 434.295 434.996 434.886 434.198 435.476 433.399 436.191 433 437.029 433Z" fill-rule="evenodd"/><path d="M378.5 454C380.566 454 382.484 454.484 384.253 455.45 386.021 456.417 387.554 457.819 388.85 459.656 390.145 461.493 391.161 463.741 391.897 466.4 392.632 469.059 393 472.104 393 475.536 393 478.969 392.632 482.014 391.897 484.673 391.161 487.332 390.145 489.568 388.85 491.38 387.554 493.193 386.021 494.583 384.253 495.55 382.484 496.517 380.566 497 378.5 497 376.434 497 374.516 496.517 372.747 495.55 370.979 494.583 369.446 493.193 368.15 491.38 366.855 489.568 365.839 487.332 365.103 484.673 364.368 482.014 364 478.969 364 475.536 364 472.104 364.368 469.059 365.103 466.4 365.839 463.741 366.855 461.493 368.15 459.656 369.446 457.819 370.979 456.417 372.747 455.45 374.516 454.484 376.434 454 378.5 454ZM378.5 460.236C377.204 460.236 376.005 460.538 374.901 461.143 373.798 461.747 372.852 462.665 372.064 463.898 371.276 465.131 370.655 466.714 370.199 468.648 369.744 470.581 369.516 472.878 369.516 475.536 369.516 478.195 369.744 480.479 370.199 482.389 370.655 484.298 371.276 485.869 372.064 487.102 372.852 488.335 373.798 489.253 374.901 489.858 376.005 490.462 377.204 490.764 378.5 490.764 379.796 490.764 380.995 490.462 382.099 489.858 383.202 489.253 384.148 488.335 384.936 487.102 385.724 485.869 386.345 484.298 386.801 482.389 387.256 480.479 387.484 478.195 387.484 475.536 387.484 472.878 387.256 470.581 386.801 468.648 386.345 466.714 385.724 465.131 384.936 463.898 384.148 462.665 383.202 461.747 382.099 461.143 380.995 460.538 379.796 460.236 378.5 460.236Z" fill-rule="evenodd"/><path d="M333.39 454C334.328 454 335.117 454.384 335.757 455.151 336.397 455.919 336.716 456.847 336.716 457.936L336.716 459.273C337.143 458.827 337.665 458.295 338.284 457.676 338.902 457.057 339.659 456.476 340.554 455.931 341.45 455.386 342.484 454.928 343.657 454.557 344.829 454.186 346.183 454 347.719 454 349.296 454 350.821 454.26 352.292 454.78 353.763 455.3 355.075 456.08 356.226 457.119 357.377 458.159 358.294 459.446 358.976 460.981 359.659 462.516 360 464.298 360 466.328L360 493.064C360 494.153 359.669 495.082 359.008 495.849 358.347 496.616 357.548 497 356.61 497 355.672 497 354.883 496.616 354.243 495.849 353.603 495.082 353.284 494.153 353.284 493.064L353.284 467.219C353.284 466.13 353.06 465.152 352.612 464.286 352.164 463.419 351.588 462.702 350.885 462.132 350.181 461.563 349.392 461.13 348.518 460.832 347.644 460.535 346.78 460.387 345.927 460.387 344.52 460.387 343.241 460.672 342.089 461.241 340.938 461.81 339.968 462.59 339.179 463.58 338.39 464.571 337.783 465.746 337.356 467.108 336.93 468.47 336.716 469.943 336.716 471.527L336.716 493.064C336.716 494.153 336.397 495.082 335.757 495.849 335.117 496.616 334.328 497 333.39 497 332.452 497 331.652 496.616 330.991 495.849 330.33 495.082 330 494.153 330 493.064L330 457.936C330 456.847 330.33 455.919 330.991 455.151 331.652 454.384 332.452 454 333.39 454Z" fill-rule="evenodd"/><path d="M496.433 454C498.985 454 501.149 454.345 502.927 455.034 504.704 455.724 506.199 456.504 507.412 457.375L507.412 456.885C507.412 456.087 507.726 455.406 508.354 454.844 508.981 454.281 509.755 454 510.675 454 511.595 454 512.379 454.281 513.027 454.844 513.676 455.406 514 456.087 514 456.885L514 484.808C514 486.622 513.571 488.273 512.714 489.761 511.856 491.249 510.696 492.528 509.232 493.598 507.768 494.669 506.053 495.503 504.087 496.102 502.122 496.701 500.009 497 497.751 497 495.283 497 493.171 496.737 491.414 496.211 489.658 495.685 488.194 495.068 487.023 494.36 485.852 493.653 484.994 492.927 484.45 492.183 483.907 491.439 483.635 490.849 483.635 490.414 483.635 489.688 483.907 489.053 484.45 488.509 484.994 487.965 485.643 487.692 486.395 487.692 487.148 487.692 487.901 488.037 488.654 488.727 489.198 489.271 489.741 489.752 490.285 490.169 490.829 490.586 491.446 490.94 492.136 491.23 492.826 491.521 493.621 491.738 494.52 491.884 495.419 492.029 496.496 492.101 497.751 492.101 499.089 492.101 500.344 491.965 501.515 491.693 502.686 491.421 503.711 490.985 504.589 490.387 505.468 489.788 506.158 489.026 506.66 488.101 507.161 487.175 507.412 486.078 507.412 484.808L507.412 481.215C506.994 481.614 506.471 482.059 505.844 482.549 505.217 483.039 504.464 483.501 503.585 483.937 502.707 484.372 501.682 484.744 500.511 485.053 499.34 485.361 497.981 485.515 496.433 485.515 494.175 485.515 492.094 485.207 490.191 484.59 488.288 483.973 486.657 483.03 485.297 481.76 483.938 480.489 482.882 478.857 482.129 476.861 481.376 474.865 481 472.506 481 469.785 481 467.027 481.418 464.659 482.255 462.682 483.091 460.704 484.21 459.071 485.611 457.783 487.012 456.495 488.643 455.542 490.505 454.925 492.366 454.309 494.342 454 496.433 454ZM497.5 458.681C494.279 458.681 491.749 459.625 489.909 461.511 488.068 463.398 487.148 466.156 487.148 469.785 487.148 473.414 488.068 476.162 489.909 478.031 491.749 479.9 494.279 480.834 497.5 480.834 500.72 480.834 503.24 479.9 505.06 478.031 506.879 476.162 507.789 473.414 507.789 469.785 507.789 466.156 506.879 463.398 505.06 461.511 503.24 459.625 500.72 458.681 497.5 458.681Z" fill-rule="evenodd"/><path d="M401.277 453C402.184 453 402.947 453.384 403.565 454.151 404.183 454.919 404.493 455.847 404.493 456.936L404.493 458.273C404.905 457.827 405.41 457.295 406.008 456.676 406.605 456.057 407.337 455.476 408.203 454.931 409.068 454.386 410.068 453.928 411.201 453.557 412.335 453.186 413.644 453 415.128 453 416.653 453 418.127 453.26 419.549 453.78 420.971 454.3 422.239 455.079 423.352 456.119 424.465 457.159 425.351 458.446 426.011 459.981 426.67 461.516 427 463.298 427 465.328L427 492.064C427 493.153 426.68 494.081 426.042 494.849 425.403 495.616 424.63 496 423.723 496 422.816 496 422.053 495.616 421.435 494.849 420.817 494.081 420.507 493.153 420.507 492.064L420.507 466.219C420.507 465.13 420.291 464.152 419.858 463.286 419.425 462.419 418.869 461.702 418.189 461.132 417.509 460.563 416.746 460.13 415.901 459.832 415.056 459.535 414.221 459.387 413.397 459.387 412.036 459.387 410.8 459.672 409.687 460.241 408.574 460.81 407.636 461.59 406.873 462.58 406.111 463.571 405.523 464.746 405.111 466.108 404.699 467.47 404.493 468.942 404.493 470.527L404.493 492.064C404.493 493.153 404.183 494.081 403.565 494.849 402.947 495.616 402.184 496 401.277 496 400.37 496 399.597 495.616 398.958 494.849 398.32 494.081 398 493.153 398 492.064L398 456.936C398 455.847 398.32 454.919 398.958 454.151 399.597 453.384 400.37 453 401.277 453Z" fill-rule="evenodd"/><path d="M551.674 490.791 551.674 460.337 555.167 460.337C557.088 460.508 558.786 459.111 558.96 457.216 558.969 457.108 558.974 457 558.974 456.892L558.974 456.788C559.209 454.9 557.848 453.181 555.933 452.949 555.864 452.94 555.795 452.934 555.725 452.93L551.674 452.93 551.674 447.245C551.683 445.045 549.983 443.205 547.762 443.008 545.472 442.87 543.494 444.575 543.326 446.832L543.326 452.999 539.833 452.999C537.913 452.828 536.214 454.225 536.041 456.12 536.031 456.227 536.026 456.336 536.026 456.444L536.026 456.685C535.791 458.573 537.152 460.293 539.067 460.524 539.136 460.533 539.205 460.539 539.274 460.544L543.221 460.544 543.221 490.895C543.221 493.159 545.082 494.995 547.378 494.995L547.378 494.995C549.661 495.112 551.613 493.388 551.744 491.136 551.757 491.017 551.732 490.897 551.674 490.791Z" fill="#1C1C1C" fill-rule="evenodd"/><path d="M534 446C534 449.866 530.642 453 526.5 453 522.358 453 519 449.866 519 446 519 442.134 522.358 439 526.5 439 530.642 439 534 442.134 534 446Z" fill="#FF4500" fill-rule="evenodd"/><path d="M530 461.078C530 458.826 528.209 457 526 457 523.791 457 522 458.826 522 461.078L522 461.078 522 490.923C522 493.174 523.791 495 526 495 528.209 495 530 493.174 530 490.923Z" fill="#1C1C1C" fill-rule="evenodd"/></g></svg>